<?xml version="1.0" encoding="UTF-8"?>
<svg version="1.1" xmlns="http://www.w3.org/2000/svg" width="500" height="500">
<path d="M0 0 C1.84581083 0.70790064 3.71268221 1.3601792 5.58032227 2.00830078 C21.64953295 7.69276285 36.37721113 15.75170552 50.28930664 25.57324219 C51.49793016 26.42413285 52.71671008 27.26066214 53.94165039 28.08789062 C55.65212169 29.26008673 57.31423309 30.50220376 58.96704102 31.75439453 C58.96704102 32.41439453 58.96704102 33.07439453 58.96704102 33.75439453 C59.78688477 34.10050781 59.78688477 34.10050781 60.62329102 34.45361328 C74.15381042 41.96305155 87.79447606 58.75258665 95.96704102 71.75439453 C95.96704102 72.74439453 95.96704102 73.73439453 95.96704102 74.75439453 C96.62704102 74.75439453 97.28704102 74.75439453 97.96704102 74.75439453 C99.38104777 76.70420206 100.6196954 78.62316473 101.84204102 80.69189453 C102.2298877 81.34794678 102.61773437 82.00399902 103.01733398 82.67993164 C130.44731228 130.21770641 139.38747466 183.44343285 125.58422852 236.82470703 C120.15002609 257.05734998 111.846842 277.59509065 99.49047852 294.61767578 C98.07566683 296.60203987 96.9876492 298.54644515 95.96704102 300.75439453 C95.30704102 300.75439453 94.64704102 300.75439453 93.96704102 300.75439453 C93.63704102 302.07439453 93.30704102 303.39439453 92.96704102 304.75439453 C92.30704102 304.75439453 91.64704102 304.75439453 90.96704102 304.75439453 C90.74532227 305.45693359 90.52360352 306.15947266 90.29516602 306.88330078 C88.66424594 310.40896623 86.37067441 312.91958191 83.71704102 315.69189453 C82.93490234 316.52309814 82.93490234 316.52309814 82.13696289 317.37109375 C77.9743152 321.76595526 73.7328639 326.08483987 69.46704102 330.37939453 C68.58677246 331.26679321 68.58677246 331.26679321 67.6887207 332.17211914 C60.07676263 339.75439453 60.07676263 339.75439453 56.96704102 339.75439453 C56.96704102 340.41439453 56.96704102 341.07439453 56.96704102 341.75439453 C53.16873812 344.70391466 49.03126379 347.18786424 44.96704102 349.75439453 C44.39469727 350.12016602 43.82235352 350.4859375 43.23266602 350.86279297 C-0.10379665 378.4117042 -51.33367666 387.86006413 -101.57592773 376.77001953 C-108.23882116 375.22523917 -114.71012096 373.37352634 -121.03295898 370.75439453 C-122.06936523 370.36896484 -123.10577148 369.98353516 -124.17358398 369.58642578 C-154.32056975 358.13698544 -185.75884222 338.11062862 -205.03295898 311.75439453 C-205.03295898 311.09439453 -205.03295898 310.43439453 -205.03295898 309.75439453 C-205.69295898 309.75439453 -206.35295898 309.75439453 -207.03295898 309.75439453 C-208.32202148 308.29345703 -208.32202148 308.29345703 -209.65795898 306.37939453 C-210.10397461 305.75291016 -210.54999023 305.12642578 -211.00952148 304.48095703 C-212.03295898 302.75439453 -212.03295898 302.75439453 -212.03295898 300.75439453 C-212.69295898 300.75439453 -213.35295898 300.75439453 -214.03295898 300.75439453 C-214.52795898 299.86751953 -215.02295898 298.98064453 -215.53295898 298.06689453 C-216.85644464 295.72889025 -218.22714085 293.4560398 -219.69311523 291.20361328 C-247.96074472 247.38008092 -256.05432076 194.92539833 -245.77392578 144.17919922 C-244.03031861 136.14870562 -241.551844 128.42817203 -238.74145508 120.71337891 C-238.12231987 119.00147646 -237.53756466 117.27721874 -236.95874023 115.55126953 C-232.92354916 104.09072686 -226.88472716 93.37186283 -221.03295898 82.75439453 C-220.52265137 81.82498047 -220.01234375 80.89556641 -219.48657227 79.93798828 C-219.00687988 79.21740234 -218.5271875 78.49681641 -218.03295898 77.75439453 C-217.37295898 77.75439453 -216.71295898 77.75439453 -216.03295898 77.75439453 C-216.03295898 76.76439453 -216.03295898 75.77439453 -216.03295898 74.75439453 C-215.37295898 74.75439453 -214.71295898 74.75439453 -214.03295898 74.75439453 C-213.94916992 74.21298828 -213.86538086 73.67158203 -213.77905273 73.11376953 C-212.7744518 69.9369163 -211.05872966 67.6883595 -209.09545898 65.00439453 C-208.38518555 64.01955078 -207.67491211 63.03470703 -206.94311523 62.02001953 C-206.31276367 61.27236328 -205.68241211 60.52470703 -205.03295898 59.75439453 C-204.37295898 59.75439453 -203.71295898 59.75439453 -203.03295898 59.75439453 C-202.79834961 59.20396484 -202.56374023 58.65353516 -202.32202148 58.08642578 C-198.34190091 50.88602582 -191.23215859 44.62831889 -184.97827148 39.38720703 C-183.59310228 38.22455497 -182.23628842 37.02776094 -180.90014648 35.80908203 C-180.20147461 35.17228516 -179.50280273 34.53548828 -178.78295898 33.87939453 C-178.15905273 33.30447266 -177.53514648 32.72955078 -176.89233398 32.13720703 C-174.9189682 30.66961987 -173.43652842 30.16916979 -171.03295898 29.75439453 C-171.03295898 29.09439453 -171.03295898 28.43439453 -171.03295898 27.75439453 C-168.79437278 26.07469962 -166.56383226 24.52566452 -164.22045898 23.00439453 C-163.53556396 22.55483398 -162.85066895 22.10527344 -162.14501953 21.64208984 C-156.59353001 18.03670401 -150.92667288 14.77038595 -145.03295898 11.75439453 C-144.09194336 11.25294922 -143.15092773 10.75150391 -142.18139648 10.23486328 C-135.77003463 6.89385018 -129.29515523 4.26648269 -122.45483398 1.93017578 C-120.02140631 1.09403225 -117.65323895 0.21273931 -115.26342773 -0.72998047 C-80.31292114 -13.90234505 -34.74144019 -13.44585813 0 0 Z M-100.03295898 13.75439453 C-101.40726074 14.12443604 -101.40726074 14.12443604 -102.80932617 14.50195312 C-114.50953487 17.74228634 -125.48227678 21.83561493 -136.11645508 27.69970703 C-138.10412031 28.79355592 -140.10801993 29.85269195 -142.11499023 30.91064453 C-150.16835189 35.22549067 -157.44867342 40.04465843 -164.55639648 45.78564453 C-167.03295898 47.75439453 -167.03295898 47.75439453 -169.03295898 48.75439453 C-169.03295898 49.41439453 -169.03295898 50.07439453 -169.03295898 50.75439453 C-169.69295898 50.75439453 -170.35295898 50.75439453 -171.03295898 50.75439453 C-171.03295898 51.41439453 -171.03295898 52.07439453 -171.03295898 52.75439453 C-171.57436523 52.97095703 -172.11577148 53.18751953 -172.67358398 53.41064453 C-175.85086293 55.22022062 -178.24161297 57.66700379 -180.78295898 60.25439453 C-181.57041504 61.04982666 -181.57041504 61.04982666 -182.3737793 61.86132812 C-190.74549712 69.38571084 -190.74549712 69.38571084 -195.03295898 78.75439453 C-195.69295898 78.75439453 -196.35295898 78.75439453 -197.03295898 78.75439453 C-198.71233475 81.16170115 -200.26395005 83.56061383 -201.78295898 86.06689453 C-202.23396973 86.80311035 -202.68498047 87.53932617 -203.1496582 88.29785156 C-210.10703666 99.72693826 -215.80936741 111.44841915 -221.03295898 123.75439453 C-221.44803711 124.72248047 -221.86311523 125.69056641 -222.29077148 126.68798828 C-225.5088267 134.80914338 -226.97993752 143.40719993 -228.61572266 151.95776367 C-229.03295898 153.75439453 -229.03295898 153.75439453 -230.03295898 155.75439453 C-231.92105046 166.20353423 -232.39996267 176.53715493 -232.34545898 187.12939453 C-232.34396851 187.85184357 -232.34247803 188.5742926 -232.34094238 189.31863403 C-232.30097502 200.1156371 -231.59064009 210.23105406 -229.03295898 220.75439453 C-228.69959682 222.34054244 -228.37174819 223.92785625 -228.04858398 225.51611328 C-227.71157493 227.13752634 -227.37306499 228.75862826 -227.03295898 230.37939453 C-226.87923828 231.11472412 -226.72551758 231.85005371 -226.56713867 232.60766602 C-225.53279531 237.26381727 -224.00393779 241.38972054 -222.03295898 245.75439453 C-221.29607529 247.73070097 -220.56689564 249.70989708 -219.84545898 251.69189453 C-215.22459449 263.75054692 -209.28557173 275.0727222 -202.03295898 285.75439453 C-201.2437984 286.94182935 -200.45474173 288.12933323 -199.66577148 289.31689453 C-198.85186272 290.52603338 -198.0367733 291.73437841 -197.22045898 292.94189453 C-196.83510986 293.51963623 -196.44976074 294.09737793 -196.05273438 294.69262695 C-195.0977924 296.0834609 -194.07108348 297.42449574 -193.03295898 298.75439453 C-192.37295898 298.75439453 -191.71295898 298.75439453 -191.03295898 298.75439453 C-190.80866211 299.29451172 -190.58436523 299.83462891 -190.35327148 300.39111328 C-188.61533705 303.50191308 -186.32262957 305.97700512 -183.90795898 308.56689453 C-183.17416016 309.35930542 -183.17416016 309.35930542 -182.42553711 310.16772461 C-175.65489133 317.79715396 -175.65489133 317.79715396 -167.03295898 322.75439453 C-167.03295898 323.41439453 -167.03295898 324.07439453 -167.03295898 324.75439453 C-165.585833 326.07343681 -165.585833 326.07343681 -163.66577148 327.36376953 C-162.59262695 328.12028809 -162.59262695 328.12028809 -161.49780273 328.89208984 C-160.7256543 329.42415039 -159.95350586 329.95621094 -159.15795898 330.50439453 C-158.37291992 331.0493457 -157.58788086 331.59429687 -156.77905273 332.15576172 C-119.28120558 358.01688027 -73.3426969 368.93912186 -28.18920898 360.85986328 C-12.80000651 357.72868793 2.09724244 353.15957911 15.96704102 345.75439453 C16.66990234 345.38975098 17.37276367 345.02510742 18.09692383 344.64941406 C26.63915654 340.20426869 34.80052454 335.4253875 42.59204102 329.75439453 C43.23786133 329.28549805 43.88368164 328.81660156 44.54907227 328.33349609 C46.06448456 327.19526423 47.52264539 325.9814917 48.96704102 324.75439453 C48.96704102 324.09439453 48.96704102 323.43439453 48.96704102 322.75439453 C50.61704102 322.09439453 52.26704102 321.43439453 53.96704102 320.75439453 C53.96704102 320.09439453 53.96704102 319.43439453 53.96704102 318.75439453 C54.79655273 318.41214844 54.79655273 318.41214844 55.64282227 318.06298828 C80.04535868 304.32374509 99.0674634 265.34796078 106.57250977 239.47314453 C107.62629823 235.60176153 108.59196159 231.71396489 109.48608398 227.80273438 C109.93609586 225.88618636 110.45124469 223.98526127 110.97094727 222.08642578 C113.66964275 211.14417413 114.29322356 200.20502711 114.2277832 188.99584961 C114.21706609 186.821981 114.22775023 184.64894145 114.24047852 182.47509766 C114.25351257 170.24786093 113.14977099 158.30879326 110.02954102 146.44189453 C109.76633057 145.43848022 109.76633057 145.43848022 109.49780273 144.41479492 C108.99762202 142.52529948 108.48286471 140.63967957 107.96704102 138.75439453 C107.61319336 137.41634766 107.61319336 137.41634766 107.25219727 136.05126953 C98.72579165 105.57819856 80.98657835 78.75436915 58.90454102 56.44189453 C58.34420166 55.87229004 57.7838623 55.30268555 57.20654297 54.71582031 C54.57883894 51.72136179 54.57883894 51.72136179 50.96704102 50.75439453 C50.96704102 50.09439453 50.96704102 49.43439453 50.96704102 48.75439453 C48.8598472 46.98766435 46.75518355 45.36114329 44.52954102 43.75439453 C43.86156494 43.26890137 43.19358887 42.7834082 42.50537109 42.28320312 C34.96941628 36.90324511 27.04803891 32.25859298 18.96704102 27.75439453 C18.11110352 27.26326172 17.25516602 26.77212891 16.37329102 26.26611328 C3.2079264 19.15032642 -12.38244194 14.61783751 -27.03295898 11.75439453 C-27.92909912 11.57779297 -28.82523926 11.40119141 -29.74853516 11.21923828 C-39.32781836 9.53192253 -48.77454757 9.35463565 -58.47045898 9.37939453 C-59.30955811 9.38027069 -60.14865723 9.38114685 -61.01318359 9.38204956 C-74.37477864 9.42799793 -87.08350529 10.21199841 -100.03295898 13.75439453 Z " fill="#F62A42" transform="translate(309.032958984375,63.24560546875)"/>
<path d="M0 0 C0.825 0.556875 1.65 1.11375 2.5 1.6875 C9.63868696 8.29078544 13.42784863 16.54740402 14.28125 26.171875 C14.62629898 38.42111391 11.51824473 47.90702832 3.18359375 56.9765625 C-4.56421324 64.33306611 -12.54195935 66.57421938 -23.08666992 66.48168945 C-30.38535661 66.18529167 -35.99777409 64.00148394 -42 60 C-42 59.34 -42 58.68 -42 58 C-42.598125 57.74089844 -43.19625 57.48179687 -43.8125 57.21484375 C-49.99381005 53.78200906 -53.17761926 46.43470198 -55.30859375 39.98828125 C-57.62063054 29.99557986 -56.46124493 19.31814552 -51.5234375 10.3046875 C-45.80233627 1.55323129 -38.6775682 -3.71747972 -28.6875 -6.6875 C-18.0652379 -7.92264676 -8.67608739 -6.65839265 0 0 Z " fill="#F82A43" transform="translate(271,220)"/>
<path d="M0 0 C0.33 0 0.66 0 1 0 C0.57928166 5.0486201 -0.12408992 9.72956244 -1.4375 14.625 C-4.67440926 27.10192697 -5.37846835 39.55471812 -5.3125 52.375 C-5.31100952 53.09744904 -5.30951904 53.81989807 -5.3079834 54.5642395 C-5.2680219 65.35966009 -4.56294211 75.47901494 -2 86 C-1.64366272 87.65653217 -1.29237431 89.31415596 -0.9453125 90.97265625 C0.03060546 98.52876293 0.03060546 98.52876293 3 105 C3.04063832 106.66617115 3.042721 108.33388095 3 110 C2.01 109.67 1.02 109.34 0 109 C-0.103125 107.783125 -0.20625 106.56625 -0.3125 105.3125 C-0.7716258 101.52637564 -1.95713044 99.23454347 -4 96 C-5.08210041 91.18429488 -5.12012975 86.52796159 -5.0625 81.625 C-5.05798828 80.88894531 -5.05347656 80.15289062 -5.04882812 79.39453125 C-5.03715142 77.59631842 -5.01922011 75.79814803 -5 74 C-5.99 74 -6.98 74 -8 74 C-8.07637583 67.45303868 -8.12873618 60.90619327 -8.16479492 54.35888672 C-8.17983512 52.13390815 -8.20027246 49.90895899 -8.22631836 47.68408203 C-8.26291135 44.47681394 -8.2797745 41.26993955 -8.29296875 38.0625 C-8.30845261 37.07572266 -8.32393646 36.08894531 -8.33988953 35.07226562 C-8.34136173 28.96254388 -7.42228045 24.60655704 -5 19 C-4.53249281 16.67996433 -4.13008792 14.34526467 -3.8125 12 C-3.65394531 10.865625 -3.49539062 9.73125 -3.33203125 8.5625 C-3.22246094 7.716875 -3.11289063 6.87125 -3 6 C-2.34 6 -1.68 6 -1 6 C-0.67 4.02 -0.34 2.04 0 0 Z " fill="#A92A37" transform="translate(83,198)"/>
<path d="M0 0 C6.98730636 -0.19713404 13.57714583 -0.21365933 20.390625 1.46484375 C27.32194591 2.88638711 34.35461488 3.17022237 41.41015625 3.31640625 C42.68952309 3.3475779 42.68952309 3.3475779 43.99473572 3.37937927 C46.68391911 3.44407199 49.3731889 3.503381 52.0625 3.5625 C53.90039909 3.60576184 55.73828986 3.64937839 57.57617188 3.69335938 C62.05069571 3.79966934 66.52530527 3.90115562 71 4 C71 3.34 71 2.68 71 2 C77.27 2 83.54 2 90 2 C72.68335374 13.54443084 32.47897763 8.28360998 13.03417969 4.43652344 C8.62642051 3.49064329 4.28168817 2.41385956 0 1 C0 0.67 0 0.34 0 0 Z " fill="#A62533" transform="translate(201,437)"/>
<path d="M0 0 C2.35546067 3.53319101 2.68800372 6.51354839 3.125 10.625 C3.2084668 11.40625244 3.29193359 12.18750488 3.37792969 12.99243164 C6.032311 40.94198347 3.49916455 69.46627594 -6 96 C-6.33 96 -6.66 96 -7 96 C-7.50736358 89.78479614 -6.21200948 84.69439 -4.49755859 78.71826172 C-3.1561826 73.92251407 -2.51958768 69.38278803 -2.2109375 64.4296875 C-1.89681736 60.81148887 -0.94992785 57.50285896 0 54 C0.91082202 49.45913094 1.12876612 45.14772721 1.1328125 40.51953125 C1.13376923 39.82486252 1.13472595 39.13019379 1.13571167 38.41447449 C1.13638824 36.9564098 1.13457066 35.498342 1.13037109 34.0402832 C1.12499081 31.80868818 1.13034628 29.57729217 1.13671875 27.34570312 C1.13605835 25.92447872 1.13477799 24.50325445 1.1328125 23.08203125 C1.13168457 21.79530518 1.13055664 20.5085791 1.12939453 19.18286133 C1.14648148 15.97705897 1.14648148 15.97705897 0 13 C-0.06937062 10.77181559 -0.08457084 8.54165476 -0.0625 6.3125 C-0.05347656 5.13300781 -0.04445313 3.95351562 -0.03515625 2.73828125 C-0.02355469 1.83464844 -0.01195312 0.93101562 0 0 Z " fill="#771721" transform="translate(437,216)"/>
<path d="M0 0 C2.97 0.495 2.97 0.495 6 1 C6 1.66 6 2.32 6 3 C6.66 3 7.32 3 8 3 C8.5625 4.9375 8.5625 4.9375 9 7 C8.67 7.33 8.34 7.66 8 8 C9.32 8.66 10.64 9.32 12 10 C11.34 11.32 10.68 12.64 10 14 C10.99 14.33 11.98 14.66 13 15 C12.34 16.32 11.68 17.64 11 19 C10.01 19 9.02 19 8 19 C7.67 18.34 7.34 17.68 7 17 C4.47266765 16.34444881 4.47266765 16.34444881 2 16 C1.67 15.01 1.34 14.02 1 13 C0.2575 12.9175 -0.485 12.835 -1.25 12.75 C-4.51221354 11.8603054 -5.80954878 10.51496251 -8 8 C-6.68 7.67 -5.36 7.34 -4 7 C-3.67 5.35 -3.34 3.7 -3 2 C-2.01 2 -1.02 2 0 2 C0 1.34 0 0.68 0 0 Z " fill="#FA2A42" transform="translate(147,396)"/>
<path d="M0 0 C0.33 0 0.66 0 1 0 C1.05524131 1.95799743 1.093338 3.91647937 1.125 5.875 C1.14820312 6.96554688 1.17140625 8.05609375 1.1953125 9.1796875 C1.04078353 12.20227406 0.68486876 14.54152244 0 17.43945312 C-1.25632365 23.57311231 -1.25234519 29.54812871 -1.1953125 35.7890625 C-1.1924826 36.97349945 -1.18965271 38.1579364 -1.18673706 39.37826538 C-1.17562395 43.12728369 -1.1505358 46.87605501 -1.125 50.625 C-1.11495874 53.18098611 -1.1058349 55.736976 -1.09765625 58.29296875 C-1.07571371 64.5287288 -1.04232539 70.76434675 -1 77 C-3.37530094 73.43704859 -3.68880437 70.39699984 -4.125 66.25 C-4.2502002 65.07038696 -4.2502002 65.07038696 -4.37792969 63.86694336 C-6.41954856 42.43619503 -5.116272 20.90849824 0 0 Z " fill="#741420" transform="translate(64,206)"/>
<path d="M0 0 C1.37103882 -0.01824829 1.37103882 -0.01824829 2.76977539 -0.03686523 C5.92986788 0.16728652 8.39766945 1.10902311 11.26171875 2.390625 C14.25431377 3.50985554 17.26132577 3.68190378 20.4296875 3.91015625 C22.21484375 4.12109375 22.21484375 4.12109375 23.21484375 5.12109375 C24.56231459 5.35184457 25.9186194 5.53262438 27.27734375 5.68359375 C28.57671875 5.82796875 29.87609375 5.97234375 31.21484375 6.12109375 C31.21484375 6.78109375 31.21484375 7.44109375 31.21484375 8.12109375 C31.99859375 8.07984375 32.78234375 8.03859375 33.58984375 7.99609375 C36.21484375 8.12109375 36.21484375 8.12109375 38.21484375 10.12109375 C39.01921875 10.24484375 39.82359375 10.36859375 40.65234375 10.49609375 C43.82060147 11.26883954 44.54821374 12.40185532 46.21484375 15.12109375 C42.53189006 14.29151755 39.02943313 13.0439611 35.46484375 11.80859375 C16.78672779 5.48984642 -1.43010336 2.86139995 -21.09765625 2.49609375 C-22.82098098 2.45780846 -24.54428874 2.41875109 -26.26757812 2.37890625 C-30.43996238 2.28408574 -34.61243539 2.1996496 -38.78515625 2.12109375 C-38.78515625 1.79109375 -38.78515625 1.46109375 -38.78515625 1.12109375 C-34.44767064 0.97615111 -30.11010771 0.83386392 -25.77246094 0.69384766 C-24.30238599 0.64604295 -22.83233289 0.59756101 -21.36230469 0.54833984 C-14.24306489 0.31038435 -7.12290086 0.08728115 0 0 Z " fill="#841B26" transform="translate(270.78515625,70.87890625)"/>
<path d="M0 0 C-0.33 0.99 -0.66 1.98 -1 3 C-1.81984375 3.04898437 -2.6396875 3.09796875 -3.484375 3.1484375 C-5.10085938 3.26058594 -5.10085938 3.26058594 -6.75 3.375 C-7.81734375 3.44460938 -8.8846875 3.51421875 -9.984375 3.5859375 C-12.90154633 3.80233003 -12.90154633 3.80233003 -14.83306885 5.01168823 C-17.58378655 6.26625817 -19.6670151 6.24041144 -22.68652344 6.22705078 C-23.82740417 6.22689972 -24.96828491 6.22674866 -26.14373779 6.22659302 C-27.36989807 6.21627045 -28.59605835 6.20594788 -29.859375 6.1953125 C-31.11888977 6.1924826 -32.37840454 6.18965271 -33.67608643 6.18673706 C-37.01673902 6.17744121 -40.35711669 6.15948583 -43.69769287 6.1373291 C-47.10963572 6.11683208 -50.52160702 6.10772712 -53.93359375 6.09765625 C-60.62247168 6.07559907 -67.31121997 6.04212367 -74 6 C-74 5.34 -74 4.68 -74 4 C-75.65 4 -77.3 4 -79 4 C-79 3.34 -79 2.68 -79 2 C-74.18940578 1.81134925 -69.84881763 2.14482771 -65.10546875 2.98828125 C-57.8772693 4.12896165 -50.80792277 4.34340131 -43.5 4.3125 C-42.20223633 4.31048584 -40.90447266 4.30847168 -39.56738281 4.30639648 C-26.34226281 4.17016437 -12.73967523 -0.33525461 0 0 Z " fill="#6F1019" transform="translate(293,421)"/>
<path d="M0 0 C0 0.33 0 0.66 0 1 C-0.55123535 1.08451416 -1.1024707 1.16902832 -1.67041016 1.25610352 C-20.3788569 4.20063023 -38.53172217 8.43666298 -55.25537109 17.59863281 C-56.81118456 18.44801611 -58.40278705 19.23128788 -60 20 C-60.66 19.67 -61.32 19.34 -62 19 C-61.5 17.1875 -61.5 17.1875 -60 15 C-55.47580229 12.51999254 -51.16072226 11.61294583 -46 12 C-46 11.34 -46 10.68 -46 10 C-42.65479742 8.06757715 -39.55232518 7.4536147 -35.75 6.875 C-34.67234375 6.70742187 -33.5946875 6.53984375 -32.484375 6.3671875 C-31.66453125 6.24601562 -30.8446875 6.12484375 -30 6 C-30 5.34 -30 4.68 -30 4 C-25.46070575 1.83061841 -21.06327264 1.36963815 -16.125 0.875 C-15.34769531 0.78863281 -14.57039063 0.70226562 -13.76953125 0.61328125 C-9.15234527 0.12440273 -4.64209515 -0.08665244 0 0 Z " fill="#7F1823" transform="translate(231,73)"/>
<path d="M0 0 C0.33 0 0.66 0 1 0 C1 7.26 1 14.52 1 22 C2.32 21.67 3.64 21.34 5 21 C5 21.99 5 22.98 5 24 C6.19008862 29.70052449 7.77192242 36.40851601 12.625 39.875 C13.40875 40.24625 14.1925 40.6175 15 41 C16.3125 43.1875 16.3125 43.1875 17 45 C15.35 44.34 13.7 43.68 12 43 C12 42.34 12 41.68 12 41 C11.401875 40.74089844 10.80375 40.48179687 10.1875 40.21484375 C4.00630352 36.78207213 0.83681941 29.44290898 -1.3125 23.00390625 C-3.07629622 15.29731937 -2.75619167 7.40726511 0 0 Z " fill="#BF2437" transform="translate(217,237)"/>
<path d="M0 0 C0 0.33 0 0.66 0 1 C-1.01723145 1.02505615 -2.03446289 1.0501123 -3.08251953 1.07592773 C-6.92570563 1.17146168 -10.76877077 1.27130026 -14.61181641 1.37231445 C-16.26217787 1.4151206 -17.91256842 1.45682248 -19.56298828 1.49731445 C-38.3516769 1.87347856 -38.3516769 1.87347856 -57 4 C-57 4.66 -57 5.32 -57 6 C-60.63 6 -64.26 6 -68 6 C-55.90474115 -6.09525885 -15.32565413 -2.32206881 0 0 Z " fill="#591219" transform="translate(271,55)"/>
<path d="M0 0 C2.5 2.3125 2.5 2.3125 5 5 C5 5.99 5 6.98 5 8 C5.66 8 6.32 8 7 8 C8.48121415 10.13884866 9.81653282 12.25738803 11.125 14.5 C11.5173584 15.16547852 11.9097168 15.83095703 12.31396484 16.51660156 C15.22482004 21.52098398 17.98392971 26.59842919 20.625 31.75 C20.97965332 32.42869141 21.33430664 33.10738281 21.69970703 33.80664062 C22.54677361 35.49991599 23.2831226 37.24763302 24 39 C23.67 39.99 23.34 40.98 23 42 C19.223289 38.34917937 16.92899024 35.50716616 15.875 30.3125 C15.70742188 29.50425781 15.53984375 28.69601563 15.3671875 27.86328125 C15.24601562 27.24839844 15.12484375 26.63351563 15 26 C14.34 26 13.68 26 13 26 C13 24.02 13 22.04 13 20 C12.34 20 11.68 20 11 20 C11 19.34 11 18.68 11 18 C10.01 17.67 9.02 17.34 8 17 C6.61328125 15.00390625 6.61328125 15.00390625 5.3125 12.5625 C4.87550781 11.75941406 4.43851562 10.95632812 3.98828125 10.12890625 C3 8 3 8 3 6 C2.34 6 1.68 6 1 6 C0.67 4.02 0.34 2.04 0 0 Z " fill="#851927" transform="translate(400,130)"/>
<path d="M0 0 C4.84697156 0.61294387 8.63483594 2.65688957 12.875 4.9375 C13.61371338 5.33211426 14.35242676 5.72672852 15.11352539 6.13330078 C20.36989882 8.99388929 25.44754102 12.07269496 30.4375 15.375 C31.06962402 15.79128662 31.70174805 16.20757324 32.35302734 16.63647461 C35.23253383 18.58994262 37.04544406 20.06816608 39 23 C36.69 23.33 34.38 23.66 32 24 C31.773125 23.21625 31.54625 22.4325 31.3125 21.625 C30.21875 18.78125 30.21875 18.78125 27.375 17.6875 C26.59125 17.460625 25.8075 17.23375 25 17 C25 16.01 25 15.02 25 14 C24.01 14 23.02 14 22 14 C22 13.34 22 12.68 22 12 C21.01 12 20.02 12 19 12 C18.67 11.34 18.34 10.68 18 10 C15.67843403 9.59270772 13.3431213 9.25561323 11 9 C11 8.34 11 7.68 11 7 C9.68 6.67 8.36 6.34 7 6 C7 5.34 7 4.68 7 4 C6.01 4 5.02 4 4 4 C4 3.34 4 2.68 4 2 C2.68 1.34 1.36 0.68 0 0 Z " fill="#821924" transform="translate(324,70)"/>
<path d="M0 0 C0.33 0 0.66 0 1 0 C3.17796277 5.29795096 3.26234785 9.93176215 3.1953125 15.5546875 C3.1924826 16.45623566 3.18965271 17.35778381 3.18673706 18.28665161 C3.17559439 21.14957276 3.1505008 24.01217434 3.125 26.875 C3.11496255 28.82291213 3.10583804 30.77082919 3.09765625 32.71875 C3.07567443 37.4792887 3.0411855 42.23959027 3 47 C2.01 47.495 2.01 47.495 1 48 C0.96241577 46.53977417 0.96241577 46.53977417 0.92407227 45.05004883 C0.82962722 41.42508653 0.72949833 37.80029934 0.62768555 34.17553711 C0.58447661 32.60917264 0.54279209 31.04276533 0.50268555 29.47631836 C0.44464129 27.2197582 0.38104698 24.96341092 0.31640625 22.70703125 C0.29969376 22.01100296 0.28298126 21.31497467 0.26576233 20.59785461 C0.15573759 16.95537183 -0.19427284 13.55228636 -1 10 C-1.43659711 2.87319422 -1.43659711 2.87319422 0 0 Z " fill="#97212F" transform="translate(422,218)"/>
<path d="M0 0 C1.125 3.75 1.125 3.75 0 6 C-0.99 6 -1.98 6 -3 6 C-3.2165625 7.0828125 -3.2165625 7.0828125 -3.4375 8.1875 C-3.80449068 10.02245339 -4.17914109 11.85589632 -4.5625 13.6875 C-5.06196389 15.93526987 -5.06196389 15.93526987 -5 18 C-5.886875 17.7525 -6.77375 17.505 -7.6875 17.25 C-11.06432985 16.66996075 -11.06432985 16.66996075 -13.75 18.6875 C-16.05289162 20.78545257 -16.05289162 20.78545257 -16.9375 23.125 C-18 25 -18 25 -21.125 26.25 C-22.07375 26.4975 -23.0225 26.745 -24 27 C-24 26.34 -24 25.68 -24 25 C-22.671875 23.73046875 -22.671875 23.73046875 -20.75 22.1875 C-16.78799708 18.82687252 -13.25883987 15.19455205 -9.75 11.375 C-9.24307617 10.82481201 -8.73615234 10.27462402 -8.21386719 9.70776367 C-5.34725089 6.56536564 -2.61909877 3.3549408 0 0 Z " fill="#DC2941" transform="translate(387,357)"/>
<path d="M0 0 C0.90980876 3.3873927 1.16531848 6.41951068 1.1875 9.9375 C1.20167969 10.95714844 1.21585937 11.97679687 1.23046875 13.02734375 C0.99444914 16.07159667 0.28252995 18.24737643 -1 21 C-1.66 21 -2.32 21 -3 21 C-2.96261719 21.71671875 -2.92523438 22.4334375 -2.88671875 23.171875 C-3.00986173 26.24620331 -3.67404183 28.40172264 -4.8125 31.25 C-5.14894531 32.12140625 -5.48539062 32.9928125 -5.83203125 33.890625 C-7 36 -7 36 -10 37 C-9.40648686 33.62884536 -8.53727985 30.66544226 -7.25 27.5 C-3.91625464 18.61409785 -2.08465732 9.24069398 0 0 Z " fill="#7D1821" transform="translate(420,281)"/>
<path d="M0 0 C3.27647064 3.67509169 4.4727536 7.77419399 5.9375 12.375 C6.19547363 13.16994873 6.45344727 13.96489746 6.71923828 14.78393555 C7.49197009 17.18555909 8.24963457 19.59130188 9 22 C9.21897949 22.70237793 9.43795898 23.40475586 9.66357422 24.12841797 C13.25107678 35.7756717 13.25107678 35.7756717 13 41 C11 38 11 38 11 36 C10.34 36 9.68 36 9 36 C7.61470179 30.54538831 6.7603057 25.63281599 7 20 C6.34 20 5.68 20 5 20 C5 18.68 5 17.36 5 16 C4.34 16 3.68 16 3 16 C2.49411853 14.08487728 1.99551609 12.16783078 1.5 10.25 C1.2215625 9.18265625 0.943125 8.1153125 0.65625 7.015625 C0 4 0 4 0 0 Z " fill="#951F2C" transform="translate(424,172)"/>
<path d="M0 0 C2.48474503 1.06489073 3.97791557 1.97563097 5.8125 4 C8.64013127 6.58526288 11.31283434 7.14911562 15 8 C15 8.99 15 9.98 15 11 C16.32 11.33 17.64 11.66 19 12 C18.67 12.99 18.34 13.98 18 15 C18.54780623 17.09831644 18.54780623 17.09831644 20 19 C20.845625 19.433125 21.69125 19.86625 22.5625 20.3125 C25 22 25 22 25.8125 25.6875 C25.874375 26.780625 25.93625 27.87375 26 29 C22.35250224 25.45727776 19.0442097 21.73919471 15.8125 17.8125 C11.40188147 12.51034925 6.76860811 7.61825354 1.80078125 2.828125 C0 1 0 1 0 0 Z " fill="#951D2B" transform="translate(364,116)"/>
<path d="M0 0 C4.36234233 0.53651062 7.50899908 1.56369132 11.3125 3.75 C12.25351563 4.28367187 13.19453125 4.81734375 14.1640625 5.3671875 C15.09992188 5.90601563 16.03578125 6.44484375 17 7 C18.72771494 7.96094808 20.45674598 8.91953642 22.1875 9.875 C23.45858156 10.5828878 24.72951673 11.29103897 26 12 C23.30234372 13.34882814 21.84835666 12.80338265 19 12 C18.67 11.34 18.34 10.68 18 10 C15.42562419 9.08719862 15.42562419 9.08719862 12.4375 8.375 C11.42558594 8.11460937 10.41367188 7.85421875 9.37109375 7.5859375 C8.58863281 7.39257812 7.80617187 7.19921875 7 7 C6.34 7.66 5.68 8.32 5 9 C4.01 8.67 3.02 8.34 2 8 C2.33 7.67 2.66 7.34 3 7 C1.68 6.34 0.36 5.68 -1 5 C-0.67 3.35 -0.34 1.7 0 0 Z " fill="#AE2232" transform="translate(155,399)"/>
<path d="M0 0 C0.66 0.33 1.32 0.66 2 1 C-5.76965554 8.96607941 -5.76965554 8.96607941 -9 11 C-9.66 11 -10.32 11 -11 11 C-11 11.66 -11 12.32 -11 13 C-12.84037223 14.4088974 -14.74971704 15.72840298 -16.6875 17 C-17.74324219 17.70125 -18.79898437 18.4025 -19.88671875 19.125 C-22.56446603 20.73769598 -25.06504244 21.95452347 -28 23 C-27.67 21.02 -27.34 19.04 -27 17 C-24.69 17 -22.38 17 -20 17 C-19.67 15.68 -19.34 14.36 -19 13 C-18.01 13 -17.02 13 -16 13 C-16 12.34 -16 11.68 -16 11 C-15.01 11 -14.02 11 -13 11 C-13 10.34 -13 9.68 -13 9 C-12.34 9 -11.68 9 -11 9 C-11 8.34 -11 7.68 -11 7 C-9.6696875 6.6596875 -9.6696875 6.6596875 -8.3125 6.3125 C-4.56619468 4.82811487 -2.66270566 2.97596515 0 0 Z " fill="#871B26" transform="translate(377,392)"/>
<path d="M0 0 C1.73168594 3.282788 2.40681632 5.92730441 2.875 9.625 C3.69694306 15.39832808 4.80100683 21.06026982 6.0625 26.75 C6.23700684 27.54873535 6.41151367 28.3474707 6.59130859 29.17041016 C7.16074946 32.89065334 7.16074946 32.89065334 9 36 C9.04063832 37.66617115 9.042721 39.33388095 9 41 C8.01 40.67 7.02 40.34 6 40 C5.896875 38.783125 5.79375 37.56625 5.6875 36.3125 C5.2283742 32.52637564 4.04286956 30.23454347 2 27 C0.74485343 21.45277881 0.67150313 15.78710858 0.4375 10.125 C0.39431641 9.15046875 0.35113281 8.1759375 0.30664062 7.171875 C0.20117726 4.78137198 0.09905825 2.39077556 0 0 Z " fill="#891C27" transform="translate(77,267)"/>
<path d="M0 0 C0.33 0 0.66 0 1 0 C1.01458252 1.30855957 1.02916504 2.61711914 1.04418945 3.96533203 C1.10323721 8.93448977 1.18043631 13.90324311 1.26245117 18.87207031 C1.29521 21.00123412 1.32338481 23.13047459 1.34643555 25.25976562 C1.48484311 37.7223357 2.08277423 49.85763538 4.05574036 62.17922974 C4.19098618 63.0338681 4.32623199 63.88850647 4.46557617 64.76904297 C4.59212082 65.51668915 4.71866547 66.26433533 4.8490448 67.03463745 C5 69 5 69 4 72 C-1.67061443 56.52171911 -0.12592849 39.35551288 -0.0625 23.125 C-0.05747407 20.87630308 -0.0529131 18.62760507 -0.04882812 16.37890625 C-0.03791117 10.9192467 -0.02126001 5.45962857 0 0 Z " fill="#E33045" transform="translate(62,229)"/>
<path d="M0 0 C1.32 0.33 2.64 0.66 4 1 C4 1.66 4 2.32 4 3 C5.65 3 7.3 3 9 3 C10 6 10 6 10.32397461 8.91845703 C11.11580757 12.52788848 12.18180239 13.76766156 14.81640625 16.3046875 C15.58017578 17.05234375 16.34394531 17.8 17.13085938 18.5703125 C17.93330078 19.33085937 18.73574219 20.09140625 19.5625 20.875 C20.36880859 21.65875 21.17511719 22.4425 22.00585938 23.25 C23.9930948 25.17844148 25.99104431 27.09423865 28 29 C25 29 25 29 23.16235352 27.51879883 C22.49131592 26.83841553 21.82027832 26.15803223 21.12890625 25.45703125 C20.38962891 24.71259766 19.65035156 23.96816406 18.88867188 23.20117188 C18.12103516 22.41291016 17.35339844 21.62464844 16.5625 20.8125 C15.4168457 19.65911133 15.4168457 19.65911133 14.24804688 18.48242188 C4 8.09166939 4 8.09166939 4 5 C3.34 5 2.68 5 2 5 C1.34 3.35 0.68 1.7 0 0 Z " fill="#871722" transform="translate(100,368)"/>
<path d="M0 0 C0.87581489 2.45006445 1.1201155 3.65229723 0.2578125 6.1484375 C-0.11601562 6.88320313 -0.48984375 7.61796875 -0.875 8.375 C-2.58024159 11.93248677 -3.59350357 15.03665985 -4 19 C-4.66 19 -5.32 19 -6 19 C-5.67 20.98 -5.34 22.96 -5 25 C-5.66 25.33 -6.32 25.66 -7 26 C-7 25.01 -7 24.02 -7 23 C-7.66 23 -8.32 23 -9 23 C-9.309375 23.61875 -9.61875 24.2375 -9.9375 24.875 C-10.625 26.25 -11.3125 27.625 -12 29 C-12.66 29 -13.32 29 -14 29 C-12.96152427 25.05379224 -11.38953009 21.87082971 -9.25 18.4375 C-5.59903252 12.54739236 -2.79780081 6.3297763 0 0 Z " fill="#821824" transform="translate(409,318)"/>
<path d="M0 0 C7.48461589 0.26033447 14.5362882 1.16030081 21.8125 2.875 C22.504646 3.03645508 23.19679199 3.19791016 23.90991211 3.36425781 C28.76576915 4.55722925 33.34501052 6.17553604 38 8 C38 8.33 38 8.66 38 9 C36.35425434 9.02688151 34.70838587 9.04634123 33.0625 9.0625 C32.14597656 9.07410156 31.22945313 9.08570312 30.28515625 9.09765625 C28 9 28 9 27 8 C24.67182036 7.63239269 22.3381615 7.29758419 20 7 C20 6.01 20 5.02 20 4 C19.05898438 3.95101562 18.11796875 3.90203125 17.1484375 3.8515625 C15.90320313 3.77679688 14.65796875 3.70203125 13.375 3.625 C12.14523437 3.55539063 10.91546875 3.48578125 9.6484375 3.4140625 C6.16346145 3.0185513 3.26950399 2.23738151 0 1 C0 0.67 0 0.34 0 0 Z " fill="#A22233" transform="translate(273,56)"/>
<path d="M0 0 C1.11765891 3.35297672 0.96003625 3.77735239 -0.328125 6.87109375 C-0.63363281 7.61037109 -0.93914062 8.34964844 -1.25390625 9.11132812 C-1.58261719 9.87896484 -1.91132813 10.64660156 -2.25 11.4375 C-2.56324219 12.20126953 -2.87648438 12.96503906 -3.19921875 13.75195312 C-4.77984054 17.51986689 -6.30003061 20.87503543 -9 24 C-9.38133299 22.0085944 -9.71325582 20.00720923 -10 18 C-9.67 17.67 -9.34 17.34 -9 17 C-9.04125 16.21625 -9.0825 15.4325 -9.125 14.625 C-9 12 -9 12 -7.625 10.1875 C-6 9 -6 9 -4 9 C-4 7.35 -4 5.7 -4 4 C-3.01 4 -2.02 4 -1 4 C-0.67 2.68 -0.34 1.36 0 0 Z " fill="#EC3044" transform="translate(429,312)"/>
<path d="M0 0 C0.99 0.33 1.98 0.66 3 1 C2.34 1.66 1.68 2.32 1 3 C1 3.66 1 4.32 1 5 C-0.98 5.33 -2.96 5.66 -5 6 C-5.66 7.98 -6.32 9.96 -7 12 C-7.99 12 -8.98 12 -10 12 C-11.32 14.64 -12.64 17.28 -14 20 C-14.99 20 -15.98 20 -17 20 C-15.46024759 12.17734982 -10.0804148 6.52121963 -3.734375 2.09375 C-2 1 -2 1 0 0 Z " fill="#881928" transform="translate(235,216)"/>
<path d="M0 0 C0 3 0 3 -1.875 4.9375 C-2.57625 5.618125 -3.2775 6.29875 -4 7 C-4.68177416 8.32567199 -5.35191436 9.65753688 -6 11 C-6.99 11.495 -6.99 11.495 -8 12 C-8.1546875 13.6396875 -8.1546875 13.6396875 -8.3125 15.3125 C-9 19 -9 19 -11.375 21.4375 C-14 23 -14 23 -17 23 C-16.38644969 19.0355211 -14.40143734 16.4475346 -12.0625 13.25 C-10.99708984 11.77273437 -10.99708984 11.77273437 -9.91015625 10.265625 C-9.27980469 9.51796875 -8.64945313 8.7703125 -8 8 C-7.34 8 -6.68 8 -6 8 C-5.7525 7.4225 -5.505 6.845 -5.25 6.25 C-3.83316683 3.6997003 -2.12372463 1.98214299 0 0 Z " fill="#EA2B49" transform="translate(112,115)"/>
<path d="M0 0 C3.35435922 1.38801071 5.11290303 2.88629 7 6 C7 6.99 7 7.98 7 9 C7.66 9 8.32 9 9 9 C9.33 10.65 9.66 12.3 10 14 C10.99 14 11.98 14 13 14 C13 15.32 13 16.64 13 18 C13.66 18 14.32 18 15 18 C15 19.32 15 20.64 15 22 C15.66 22.33 16.32 22.66 17 23 C16.01 23 15.02 23 14 23 C13.67 22.01 13.34 21.02 13 20 C12.34 20 11.68 20 11 20 C10.2265625 18.6078125 10.2265625 18.6078125 9.4375 17.1875 C6.94138993 12.79002088 4.16497406 8.58110545 1.390625 4.35546875 C0 2 0 2 0 0 Z " fill="#8C1B2A" transform="translate(84,344)"/>
<path d="M0 0 C4.00444725 1.60748595 6.71790759 4.41321458 9.6875 7.4375 C10.20989258 7.96593506 10.73228516 8.49437012 11.27050781 9.03881836 C25 23.11385146 25 23.11385146 25 28 C20.76730422 26.48832294 19.33731903 23.69447201 17 20 C16.484375 19.484375 15.96875 18.96875 15.4375 18.4375 C14 17 14 17 12.765625 14.76953125 C10.67194136 11.48541244 8.10666783 8.92519036 5.3125 6.25 C3.51990184 4.51843608 1.75227467 2.77309967 0 1 C0 0.67 0 0.34 0 0 Z " fill="#500B12" transform="translate(374,102)"/>
<path d="M0 0 C5.30190684 -0.04959331 10.60367737 -0.085811 15.90576172 -0.10986328 C17.70786899 -0.11989476 19.5099601 -0.13352315 21.31201172 -0.15087891 C23.90856935 -0.175253 26.50491097 -0.18651178 29.1015625 -0.1953125 C29.9017984 -0.20563507 30.7020343 -0.21595764 31.52651978 -0.22659302 C36.08590521 -0.22749887 39.70498223 0.26397184 44 2 C44 2.33 44 2.66 44 3 C41.70839681 3.02692484 39.41670454 3.04636124 37.125 3.0625 C35.84882813 3.07410156 34.57265625 3.08570313 33.2578125 3.09765625 C30 3 30 3 28 2 C25.89625004 1.84558791 23.78804881 1.75007361 21.6796875 1.68359375 C20.42285156 1.64169922 19.16601562 1.59980469 17.87109375 1.55664062 C16.55238281 1.51732422 15.23367187 1.47800781 13.875 1.4375 C12.53514249 1.39430488 11.19529844 1.35069027 9.85546875 1.30664062 C6.57042185 1.20029019 3.28529719 1.09826192 0 1 C0 0.67 0 0.34 0 0 Z " fill="#DC2F46" transform="translate(235,56)"/>
<path d="M0 0 C6.41638225 4.91467577 6.41638225 4.91467577 7 9 C7.66 9.33 8.32 9.66 9 10 C9 11.32 9 12.64 9 14 C9.99 14.33 10.98 14.66 12 15 C14.72868427 19.54780711 16.85198686 24.80425087 18 30 C17.67 30.99 17.34 31.98 17 33 C16.50371094 31.90042969 16.00742187 30.80085938 15.49609375 29.66796875 C11.92648808 21.86398687 8.30986942 14.40139069 3.4453125 7.296875 C1.95994591 4.93634648 0.95505449 2.61480938 0 0 Z " fill="#7B1723" transform="translate(391,146)"/>
<path d="M0 0 C2 3 2 3 2 5 C2.66 5 3.32 5 4 5 C8.32912788 15.10129838 10.04386852 26.10010111 11 37 C8.77734769 34.77734769 8.63329729 34.05805964 8.10546875 31.0703125 C7.9569043 30.28019775 7.80833984 29.49008301 7.65527344 28.67602539 C7.42372559 27.41326782 7.42372559 27.41326782 7.1875 26.125 C5.81589398 19.05590237 4.06537429 12.86275641 0.953125 6.34765625 C0 4 0 4 0 0 Z " fill="#620F17" transform="translate(410,181)"/>
<path d="M0 0 C2.97 0.33 5.94 0.66 9 1 C9 1.66 9 2.32 9 3 C9.99 3 10.98 3 12 3 C12 3.66 12 4.32 12 5 C12.61488281 5.07476562 13.22976563 5.14953125 13.86328125 5.2265625 C16.37475548 5.63512769 18.62108228 6.08892513 21 7 C23.0625 10.125 23.0625 10.125 24 13 C19.59314198 11.36971726 15.55653709 9.23570155 11.4375 7 C5.75887621 3.92287749 5.75887621 3.92287749 0 1 C0 0.67 0 0.34 0 0 Z " fill="#8A1B28" transform="translate(318,86)"/>
<path d="M0 0 C-1.269553 0.64834654 -2.54069706 1.29357815 -3.8125 1.9375 C-4.52019531 2.29714844 -5.22789062 2.65679687 -5.95703125 3.02734375 C-12.75290198 6.26285391 -22.56897943 6.05122143 -29.83203125 4.328125 C-32 3.5 -32 3.5 -35 2 C-32.25162246 0.94293172 -31.11351933 0.96129283 -28.2734375 1.9296875 C-24.25607252 3.2432412 -20.81106243 3.22340653 -16.625 3.125 C-15.88894531 3.11597656 -15.15289062 3.10695313 -14.39453125 3.09765625 C-12.5962112 3.07430144 -10.79806089 3.03843836 -9 3 C-9 2.01 -9 1.02 -9 0 C-2.25 -1.125 -2.25 -1.125 0 0 Z " fill="#7C1822" transform="translate(269,281)"/>
<path d="M0 0 C6.27 0 12.54 0 19 0 C12.38642409 4.40905061 3.72822046 4.25338428 -4 4 C-4 3.34 -4 2.68 -4 2 C-2.68 2 -1.36 2 0 2 C0 1.34 0 0.68 0 0 Z " fill="#8D1B2A" transform="translate(272,439)"/>
<path d="M0 0 C1.32 0 2.64 0 4 0 C2.59291524 3.87651851 0.76062082 7.11888481 -1.5 10.5625 C-3.51924164 13.64697716 -5.4291941 16.66203747 -7 20 C-7.66 20 -8.32 20 -9 20 C-9 18.35 -9 16.7 -9 15 C-8.34 15 -7.68 15 -7 15 C-7 14.01 -7 13.02 -7 12 C-6.01 12 -5.02 12 -4 12 C-4 11.01 -4 10.02 -4 9 C-3.34 9 -2.68 9 -2 9 C-2 7.35 -2 5.7 -2 4 C-1.34 4 -0.68 4 0 4 C0 2.68 0 1.36 0 0 Z " fill="#8C1E2B" transform="translate(412,344)"/>
<path d="M0 0 C-2.20452542 1.29855607 -4.41323296 2.58888195 -6.625 3.875 C-7.24246094 4.23980469 -7.85992187 4.60460937 -8.49609375 4.98046875 C-12.24106836 7.14861194 -15.81827217 8.77764879 -20 10 C-18.75 7.5 -18.75 7.5 -17 5 C-15.68 5 -14.36 5 -13 5 C-13 4.34 -13 3.68 -13 3 C-11.35 3 -9.7 3 -8 3 C-8.33 2.01 -8.66 1.02 -9 0 C-5.5657338 -0.85856655 -3.38317487 -0.97591583 0 0 Z " fill="#8E1B2A" transform="translate(349,416)"/>
<path d="M0 0 C3.55523589 0.60946901 6.74718795 1.41755089 10 3 C10.99 4.485 10.99 4.485 12 6 C14.56282742 6.72965366 14.56282742 6.72965366 17 7 C17.33 8.65 17.66 10.3 18 12 C13.83740241 10.5199653 10.41490692 8.4553071 6.75 6 C5.69296875 5.29875 4.6359375 4.5975 3.546875 3.875 C1 2 1 2 0 0 Z " fill="#8E1D2A" transform="translate(138,406)"/>
<path d="M0 0 C0.66 0.33 1.32 0.66 2 1 C-0.41140526 5.64418791 -2.34816367 9.27697386 -7 12 C-9.8125 11.75 -9.8125 11.75 -12 11 C-9.19195732 8.03595495 -6.81684226 5.55500981 -3 4 C-3 3.34 -3 2.68 -3 2 C-2.01 1.34 -1.02 0.68 0 0 Z " fill="#BE2236" transform="translate(361,384)"/>
<path d="M0 0 C0.66 0.33 1.32 0.66 2 1 C-1.40520749 5.79251424 -1.40520749 5.79251424 -4.6875 6.9375 C-5.8321875 7.4634375 -5.8321875 7.4634375 -7 8 C-7.89830839 11.05272465 -7.89830839 11.05272465 -8 14 C-9.36125 13.938125 -9.36125 13.938125 -10.75 13.875 C-13.94621811 13.99793147 -15.28410836 14.50035549 -18 16 C-14.40150545 11.45721964 -11.06421681 7.87739592 -6 5 C-5.34 5 -4.68 5 -4 5 C-4 4.34 -4 3.68 -4 3 C-2 1.375 -2 1.375 0 0 Z " fill="#9E1C2C" transform="translate(142,88)"/>
<path d="M0 0 C7.07409145 -0.27741535 14.10098718 0.35882514 21 2 C21.33 2.66 21.66 3.32 22 4 C16.39 4 10.78 4 5 4 C5 3.34 5 2.68 5 2 C3.35 2 1.7 2 0 2 C0 1.34 0 0.68 0 0 Z " fill="#941E2F" transform="translate(214,423)"/>
<path d="M0 0 C0 0.66 0 1.32 0 2 C-0.66 2 -1.32 2 -2 2 C-2 2.66 -2 3.32 -2 4 C-3.175625 4.12375 -3.175625 4.12375 -4.375 4.25 C-5.674375 4.62125 -5.674375 4.62125 -7 5 C-7.433125 5.99 -7.433125 5.99 -7.875 7 C-9 9 -9 9 -11.1640625 9.609375 C-11.97617188 9.65578125 -12.78828125 9.7021875 -13.625 9.75 C-14.44226563 9.80671875 -15.25953125 9.8634375 -16.1015625 9.921875 C-16.72804687 9.94765625 -17.35453125 9.9734375 -18 10 C-15.50800908 7.17855943 -12.74756021 5.62919969 -9.4375 3.875 C-8.46683594 3.35679688 -7.49617187 2.83859375 -6.49609375 2.3046875 C-2.08682635 0 -2.08682635 0 0 0 Z " fill="#831A26" transform="translate(168,74)"/>
<path d="M0 0 C0.33 0 0.66 0 1 0 C1 8.58 1 17.16 1 26 C-2.5415889 22.4584111 -2.15907052 18.52619672 -2.1875 13.6875 C-2.1594479 8.70544662 -1.73281216 4.65693267 0 0 Z " fill="#7F1721" transform="translate(217,237)"/>
<path d="M0 0 C0.33 0 0.66 0 1 0 C1.22428282 7.94957992 0.95403042 15.27111181 -1 23 C-1.66 23 -2.32 23 -3 23 C-3.41467342 14.98298054 -1.85939879 7.78069851 0 0 Z " fill="#811924" transform="translate(64,206)"/>
<path d="M0 0 C5.59559391 1.39889848 9.70295853 4.25917455 14 8 C14 8.33 14 8.66 14 9 C11.69 9.33 9.38 9.66 7 10 C6.6596875 8.824375 6.6596875 8.824375 6.3125 7.625 C5.21875 4.78125 5.21875 4.78125 2.375 3.6875 C1.59125 3.460625 0.8075 3.23375 0 3 C0 2.01 0 1.02 0 0 Z " fill="#B52336" transform="translate(349,84)"/>
<path d="M0 0 C0.33 0 0.66 0 1 0 C0.55397709 6.69034366 -2.07345542 12.02812122 -5 18 C-5.33 18 -5.66 18 -6 18 C-5.67 13.38 -5.34 8.76 -5 4 C-3.02 4.495 -3.02 4.495 -1 5 C-0.67 3.35 -0.34 1.7 0 0 Z " fill="#98202F" transform="translate(96,164)"/>
<path d="M0 0 C2.08268593 -0.08126087 4.16628658 -0.13930839 6.25 -0.1875 C7.99023438 -0.23970703 7.99023438 -0.23970703 9.765625 -0.29296875 C13.30400182 0.0275364 14.37611428 0.74437894 17 3 C20.15118325 3.72045367 20.15118325 3.72045367 23 4 C23 4.33 23 4.66 23 5 C17.4978184 5.23136637 12.86146222 4.4350346 7.5625 3 C6.83095703 2.80921875 6.09941406 2.6184375 5.34570312 2.421875 C3.56180334 1.95549597 1.78060155 1.47881722 0 1 C0 0.67 0 0.34 0 0 Z " fill="#7D1621" transform="translate(201,437)"/>
<path d="M0 0 C6.82423338 1.23416987 13.39367844 2.8915995 20 5 C20 5.33 20 5.66 20 6 C16.04 6 12.08 6 8 6 C8 5.34 8 4.68 8 4 C6.68 4 5.36 4 4 4 C4 3.34 4 2.68 4 2 C2.68 1.34 1.36 0.68 0 0 Z " fill="#831726" transform="translate(194,417)"/>
<path d="M0 0 C8.27651309 0.51728207 13.77627116 4.74872879 20 10 C19.67 10.66 19.34 11.32 19 12 C18.236875 11.690625 17.47375 11.38125 16.6875 11.0625 C14.81210323 10.32106407 12.91315348 9.63771783 11 9 C10.81630859 8.04867187 10.81630859 8.04867187 10.62890625 7.078125 C10.19044959 4.75861726 10.19044959 4.75861726 7.71484375 3.734375 C6.79832031 3.40953125 5.88179688 3.0846875 4.9375 2.75 C4.01839844 2.41484375 3.09929687 2.0796875 2.15234375 1.734375 C1.44207031 1.49203125 0.73179687 1.2496875 0 1 C0 0.67 0 0.34 0 0 Z " fill="#73131D" transform="translate(256,214)"/>
<path d="M0 0 C5.66442374 0.36504064 10.00703705 1.0554321 15 4 C15 4.66 15 5.32 15 6 C15.99 6.33 16.98 6.66 18 7 C16 8 16 8 13.3203125 7.109375 C12.26585937 6.66078125 11.21140625 6.2121875 10.125 5.75 C8.55105469 5.09257812 8.55105469 5.09257812 6.9453125 4.421875 C4.33017057 3.15939269 2.23504416 1.83554351 0 0 Z " fill="#8B1D29" transform="translate(167,424)"/>
<path d="M0 0 C-0.26171875 1.859375 -0.26171875 1.859375 -1 4 C-2.70703125 5.265625 -2.70703125 5.265625 -4.8125 6.25 C-5.49957031 6.58515625 -6.18664062 6.9203125 -6.89453125 7.265625 C-9 8 -9 8 -13 8 C-13.33 8.66 -13.66 9.32 -14 10 C-14.66 9.34 -15.32 8.68 -16 8 C-13.71125827 6.66141476 -11.41930344 5.32898986 -9.125 4 C-8.47402344 3.6184375 -7.82304687 3.236875 -7.15234375 2.84375 C-2.2265625 0 -2.2265625 0 0 0 Z " fill="#8B1928" transform="translate(343,399)"/>
<path d="M0 0 C0.33 0 0.66 0 1 0 C0.39700836 7.23589973 -1.1150587 13.99370876 -3 21 C-3.33 21 -3.66 21 -4 21 C-4.18451025 10.44191344 -4.18451025 10.44191344 -3 6 C-2.34 6 -1.68 6 -1 6 C-0.67 4.02 -0.34 2.04 0 0 Z " fill="#75151E" transform="translate(83,198)"/>
<path d="M0 0 C0.33 0 0.66 0 1 0 C1.05418326 2.08304538 1.09287551 4.16649768 1.125 6.25 C1.14820312 7.41015625 1.17140625 8.5703125 1.1953125 9.765625 C1.0103949 12.82786046 0.60823023 14.44202751 -1 17 C-3.7930115 12.81048275 -2.91461658 9.79124832 -2 5 C-0.9375 1.9375 -0.9375 1.9375 0 0 Z " fill="#9B1F2E" transform="translate(78,217)"/>
<path d="M0 0 C-2.74461688 1.20151896 -5.49452127 2.38638103 -8.25 3.5625 C-9.02730469 3.90474609 -9.80460937 4.24699219 -10.60546875 4.59960938 C-11.35957031 4.91865234 -12.11367188 5.23769531 -12.890625 5.56640625 C-13.58188477 5.86490479 -14.27314453 6.16340332 -14.98535156 6.47094727 C-17.35070424 7.09209599 -18.71013447 6.77451334 -21 6 C-20.01 5.34 -19.02 4.68 -18 4 C-18 3.67 -18 3.34 -18 3 C-16.02 3 -14.04 3 -12 3 C-12 2.34 -12 1.68 -12 1 C-10.56496445 0.63597631 -9.12683494 0.28413409 -7.6875 -0.0625 C-6.88699219 -0.25972656 -6.08648437 -0.45695312 -5.26171875 -0.66015625 C-3 -1 -3 -1 0 0 Z " fill="#761621" transform="translate(327,428)"/>
<path d="M0 0 C1.00449785 3.35100483 1.16548829 6.44644298 1.1875 9.9375 C1.20167969 10.95714844 1.21585937 11.97679687 1.23046875 13.02734375 C0.99444914 16.07159667 0.28252995 18.24737643 -1 21 C-1.33 21 -1.66 21 -2 21 C-2.20177072 13.64657821 -2.21211746 7.05112439 0 0 Z " fill="#9C1F2F" transform="translate(420,281)"/>
<path d="M0 0 C0 0.33 0 0.66 0 1 C-4.29 1.66 -8.58 2.32 -13 3 C-13 3.66 -13 4.32 -13 5 C-16.63 5 -20.26 5 -24 5 C-21.29845703 2.29845703 -18.43552293 2.06109903 -14.8125 1.375 C-13.51957031 1.11460938 -12.22664062 0.85421875 -10.89453125 0.5859375 C-7.19139965 0.02879634 -3.73726778 -0.10664059 0 0 Z " fill="#630E16" transform="translate(227,56)"/>
<path d="M0 0 C0.33 0.99 0.66 1.98 1 3 C1.99 2.67 2.98 2.34 4 2 C4.66 2.66 5.32 3.32 6 4 C5.7578125 6.8203125 5.7578125 6.8203125 5.125 10.125 C4.92132813 11.22070312 4.71765625 12.31640625 4.5078125 13.4453125 C4.34023438 14.28835937 4.17265625 15.13140625 4 16 C2.60025314 13.36518239 1.58775959 10.89629292 0.875 8 C0.70742188 7.34 0.53984375 6.68 0.3671875 6 C0 4 0 4 0 0 Z " fill="#E42F47" transform="translate(417,197)"/>
<path d="M0 0 C8.37495014 0.38612648 16.00269231 1.45175967 24 4 C20.21510558 5.3275376 17.04209882 4.77295886 13.125 4.1875 C11.33449219 3.93033203 11.33449219 3.93033203 9.5078125 3.66796875 C6.19636428 3.03739231 3.16514041 2.14700042 0 1 C0 0.67 0 0.34 0 0 Z " fill="#560C13" transform="translate(273,56)"/>
<path d="M0 0 C0.99 0 1.98 0 3 0 C2.34309381 3.78239671 1.279869 7.21841526 -0.0625 10.8125 C-0.42472656 11.78832031 -0.78695312 12.76414063 -1.16015625 13.76953125 C-1.57587891 14.87361328 -1.57587891 14.87361328 -2 16 C-2.33 16 -2.66 16 -3 16 C-2.57910004 10.39538469 -2.08386889 5.27913453 0 0 Z " fill="#8C1D2A" transform="translate(87,182)"/>
<path d="M0 0 C2.29648357 2.89585905 4.04347557 5.8172031 5.6875 9.125 C6.12449219 9.99382812 6.56148438 10.86265625 7.01171875 11.7578125 C8 14 8 14 8 16 C7.34 16 6.68 16 6 16 C1.78869556 11.06713249 0.34134268 6.37173005 0 0 Z " fill="#811925" transform="translate(93,324)"/>
<path d="M0 0 C0.99 0 1.98 0 3 0 C2.34 1.65 1.68 3.3 1 5 C0.34 5 -0.32 5 -1 5 C-1.2475 5.7425 -1.495 6.485 -1.75 7.25 C-3.09147301 10.20124062 -4.60905526 11.84814974 -7 14 C-7 12.68 -7 11.36 -7 10 C-6.01 9.34 -5.02 8.68 -4 8 C-3.27034634 5.43717258 -3.27034634 5.43717258 -3 3 C-2.34 3 -1.68 3 -1 3 C-0.67 2.01 -0.34 1.02 0 0 Z " fill="#801B24" transform="translate(113,137)"/>
<path d="M0 0 C0.66 0 1.32 0 2 0 C2.598125 0.763125 3.19625 1.52625 3.8125 2.3125 C5.80346361 5.12715917 5.80346361 5.12715917 8.6875 6.375 C11 8 11 8 11.8125 11.6875 C11.874375 12.780625 11.93625 13.87375 12 15 C7.47619711 10.75036698 3.61682339 6.04479113 0 1 C0 0.67 0 0.34 0 0 Z " fill="#71141D" transform="translate(378,130)"/>
<path d="M0 0 C0.66 0 1.32 0 2 0 C2.86627399 1.59766103 3.71766465 3.20339944 4.5625 4.8125 C5.27599609 6.15248047 5.27599609 6.15248047 6.00390625 7.51953125 C7 10 7 10 6 13 C0.04891304 7.24728261 0.04891304 7.24728261 -0.125 2.8125 C-0.08375 1.884375 -0.0425 0.95625 0 0 Z " fill="#9E202F" transform="translate(417,159)"/>
<path d="M0 0 C0.66 0.33 1.32 0.66 2 1 C-2.66666667 5.66666667 -7.33333333 10.33333333 -12 15 C-11.690625 14.4225 -11.38125 13.845 -11.0625 13.25 C-10.07416636 11.15705816 -9.4831387 9.25464725 -9 7 C-8.34 7 -7.68 7 -7 7 C-6.67 6.01 -6.34 5.02 -6 4 C-5.34 4 -4.68 4 -4 4 C-2.62689293 2.70766393 -1.28965176 1.37562854 0 0 Z " fill="#70121C" transform="translate(130,120)"/>
<path d="M0 0 C0 0.66 0 1.32 0 2 C-1.65 2.33 -3.3 2.66 -5 3 C-5 3.66 -5 4.32 -5 5 C-8.82517513 7.39073445 -12.59665524 7.55966552 -17 8 C-15.60920481 5.21840961 -14.06287872 5.07774078 -11.1875 4 C-8.65699015 3.04311592 -6.21005826 2.10745432 -3.80078125 0.875 C-2 0 -2 0 0 0 Z " fill="#7D1623" transform="translate(327,408)"/>
<path d="M0 0 C2.49361571 1.20381448 4.68143083 2.45428722 7 4 C4.03 6.475 4.03 6.475 1 9 C0.34 8.67 -0.32 8.34 -1 8 C-0.34 6.68 0.32 5.36 1 4 C0.34 4 -0.32 4 -1 4 C-0.67 2.68 -0.34 1.36 0 0 Z " fill="#B62331" transform="translate(148,98)"/>
<path d="M0 0 C-1 2 -1 2 -3.5625 3.125 C-7.58289462 4.14837318 -10.86509813 4.14258282 -15 4 C-12.69846709 1.69846709 -11.15124095 1.2422972 -8.0625 0.3125 C-7.18722656 0.04050781 -6.31195313 -0.23148437 -5.41015625 -0.51171875 C-3 -1 -3 -1 0 0 Z " fill="#7D1822" transform="translate(309,417)"/>
<path d="M0 0 C2.5 1.375 2.5 1.375 5 3 C5 3.66 5 4.32 5 5 C5.598125 5.28875 6.19625 5.5775 6.8125 5.875 C9 7 9 7 12 9 C11.67 9.66 11.34 10.32 11 11 C8.1875 10.375 8.1875 10.375 5 9 C3.25 5.9375 3.25 5.9375 2 3 C1.34 2.67 0.68 2.34 0 2 C0 1.34 0 0.68 0 0 Z " fill="#791620" transform="translate(130,377)"/>
<path d="M0 0 C2.94289954 2.94289954 2.97327103 5.11473658 3.09765625 9.234375 C3.08605469 10.39453125 3.07445312 11.5546875 3.0625 12.75 C3.05347656 13.92046875 3.04445313 15.0909375 3.03515625 16.296875 C3.02355469 17.18890625 3.01195312 18.0809375 3 19 C2.67 19 2.34 19 2 19 C1.92652344 17.98679688 1.92652344 17.98679688 1.8515625 16.953125 C1.77679688 16.06109375 1.70203125 15.1690625 1.625 14.25 C1.55539062 13.36828125 1.48578125 12.4865625 1.4140625 11.578125 C0.99921905 8.99513749 0.17279435 7.30649555 -1 5 C-0.625 2.25 -0.625 2.25 0 0 Z " fill="#77151F" transform="translate(282,237)"/>
<path d="M0 0 C0.33 0 0.66 0 1 0 C1.22893102 3.03333605 1.35414522 5.97366814 1 9 C-0.875 11.0625 -0.875 11.0625 -3 12 C-3.66 12 -4.32 12 -5 12 C-3.68938409 7.76570244 -2.05643741 3.92592596 0 0 Z " fill="#9A1D2C" transform="translate(83,155)"/>
<path d="M0 0 C0.99 0 1.98 0 3 0 C1.43358249 4.30764815 -0.68336156 8.06171464 -3 12 C-3.33 12 -3.66 12 -4 12 C-4 10.02 -4 8.04 -4 6 C-3.34 6 -2.68 6 -2 6 C-2 4.68 -2 3.36 -2 2 C-1.34 2 -0.68 2 0 2 C0 1.34 0 0.68 0 0 Z " fill="#901E2C" transform="translate(103,151)"/>
<path d="M0 0 C4.29 0 8.58 0 13 0 C12.67 0.66 12.34 1.32 12 2 C7.55499776 3.33350067 3.6681169 4.29175731 -1 4 C-0.34 3.67 0.32 3.34 1 3 C0.67 2.01 0.34 1.02 0 0 Z " fill="#8D1A25" transform="translate(292,435)"/>
<path d="M0 0 C4.04420651 1.77945087 7.46078487 4.39529673 11 7 C9.19921875 7.60546875 9.19921875 7.60546875 7 8 C1.40329218 5.03703704 1.40329218 5.03703704 0.125 1.75 C0.08375 1.1725 0.0425 0.595 0 0 Z " fill="#961D2A" transform="translate(142,388)"/>
<path d="M0 0 C6.41638225 4.91467577 6.41638225 4.91467577 7 9 C7.66 9.33 8.32 9.66 9 10 C9 11.32 9 12.64 9 14 C9.66 14.33 10.32 14.66 11 15 C10.01 15 9.02 15 8 15 C6.46484375 12.98828125 6.46484375 12.98828125 4.9375 10.3125 C4.43089844 9.44238281 3.92429687 8.57226562 3.40234375 7.67578125 C2.08467923 5.16157457 0.99961002 2.65446679 0 0 Z " fill="#73131E" transform="translate(391,146)"/>
<path d="M0 0 C2.5 2.3125 2.5 2.3125 5 5 C5 5.99 5 6.98 5 8 C5.66 8 6.32 8 7 8 C7.66 9.65 8.32 11.3 9 13 C6.00675737 11.9024777 5.15389099 11.32317108 3.75 8.375 C3.5025 7.59125 3.255 6.8075 3 6 C2.34 6 1.68 6 1 6 C0.67 4.02 0.34 2.04 0 0 Z " fill="#831926" transform="translate(400,130)"/>
<path d="M0 0 C0.66 0 1.32 0 2 0 C2.33 1.65 2.66 3.3 3 5 C1 6 1 6 -1.3125 6.3125 C-4.62506953 7.15990151 -6.46539695 8.75506587 -9 11 C-7.8829081 7.98385187 -6.3874224 6.35491331 -3.9375 4.375 C-0.99175287 2.32880603 -0.99175287 2.32880603 0 0 Z " fill="#71121C" transform="translate(122,104)"/>
<path d="M0 0 C-2.54631035 2.97069541 -5.42230149 4.4775751 -9 6 C-9.66 5.67 -10.32 5.34 -11 5 C-10.4375 3.125 -10.4375 3.125 -9 1 C-2.71428571 -1.35714286 -2.71428571 -1.35714286 0 0 Z " fill="#94202D" transform="translate(180,87)"/>
<path d="M0 0 C1.65 0.33 3.3 0.66 5 1 C3.63629701 3.99220268 2.05091917 6.29026529 -0.125 8.75 C-0.93324219 9.67039062 -0.93324219 9.67039062 -1.7578125 10.609375 C-2.16773438 11.06828125 -2.57765625 11.5271875 -3 12 C-3 9 -3 9 -1 7 C-0.59952556 4.67724823 -0.2602896 2.34260643 0 0 Z " fill="#841823" transform="translate(393,370)"/>
<path d="M0 0 C1.125 3.75 1.125 3.75 0 6 C-0.78375 6.45375 -1.5675 6.9075 -2.375 7.375 C-5.01373331 9.00850157 -6.31814826 10.43296314 -8 13 C-8.66 12.67 -9.32 12.34 -10 12 C-8.52149287 10.18696196 -7.04217625 8.37458402 -5.5625 6.5625 C-4.32693359 5.04849609 -4.32693359 5.04849609 -3.06640625 3.50390625 C-1 1 -1 1 0 0 Z " fill="#7C1520" transform="translate(387,357)"/>
<path d="M0 0 C0.33 1.65 0.66 3.3 1 5 C0.01 5.495 0.01 5.495 -1 6 C-1 5.01 -1 4.02 -1 3 C-1.66 3 -2.32 3 -3 3 C-3.4640625 3.928125 -3.4640625 3.928125 -3.9375 4.875 C-4.625 6.25 -5.3125 7.625 -6 9 C-6.66 9 -7.32 9 -8 9 C-6.53333333 3.5 -6.53333333 3.5 -4 1.125 C-2 0 -2 0 0 0 Z " fill="#AD2133" transform="translate(403,338)"/>
<path d="M0 0 C3.1398451 1.56992255 3.42143346 4.22447002 4.625 7.4375 C5.07101563 8.61183594 5.51703125 9.78617187 5.9765625 10.99609375 C7 14 7 14 7 16 C6.34 16 5.68 16 5 16 C2.8480563 12.77208445 2.79913557 11.71599191 3 8 C2.34 8 1.68 8 1 8 C0.67 5.36 0.34 2.72 0 0 Z " fill="#6D141C" transform="translate(86,308)"/>
<path d="M0 0 C0.33 0 0.66 0 1 0 C0.58997722 10.55808656 0.58997722 10.55808656 -4 15 C-3.50341703 9.33895411 -2.45489316 5.12325529 0 0 Z " fill="#7A1924" transform="translate(73,177)"/>
<path d="M0 0 C8.57142857 -0.28571429 8.57142857 -0.28571429 12 2 C12 2.66 12 3.32 12 4 C12.99 4.33 13.98 4.66 15 5 C11.48294042 4.34728444 8.10674923 3.48606976 4.6875 2.4375 C3.80449219 2.16808594 2.92148438 1.89867187 2.01171875 1.62109375 C1.34785156 1.41613281 0.68398437 1.21117187 0 1 C0 0.67 0 0.34 0 0 Z " fill="#7E1925" transform="translate(185,432)"/>
<path d="M0 0 C0.33 0 0.66 0 1 0 C1 3.3 1 6.6 1 10 C0.01 10.33 -0.98 10.66 -2 11 C-2.33 11.66 -2.66 12.32 -3 13 C-2.45144652 8.428721 -1.58255197 4.32564205 0 0 Z " fill="#8F1929" transform="translate(68,192)"/>
<path d="M0 0 C0.66 0.33 1.32 0.66 2 1 C1.01 3.31 0.02 5.62 -1 8 C-1.66 8 -2.32 8 -3 8 C-3 8.99 -3 9.98 -3 11 C-3.66 11 -4.32 11 -5 11 C-5.33 11.99 -5.66 12.98 -6 14 C-6.33 13.34 -6.66 12.68 -7 12 C-5.56640625 9.1796875 -5.56640625 9.1796875 -3.5625 5.875 C-2.57443359 4.23144531 -2.57443359 4.23144531 -1.56640625 2.5546875 C-1.04949219 1.71164063 -0.53257813 0.86859375 0 0 Z " fill="#6D121A" transform="translate(91,141)"/>
<path d="M0 0 C3.63 0 7.26 0 11 0 C11.33 0.99 11.66 1.98 12 3 C14.01508358 3.73323796 14.01508358 3.73323796 16 4 C10.58201328 3.30834212 5.3177215 2.24200752 0 1 C0 0.67 0 0.34 0 0 Z " fill="#72151C" transform="translate(282,75)"/>
<path d="M0 0 C0 3 0 3 -1.375 4.4375 C-1.91125 4.953125 -2.4475 5.46875 -3 6 C-3.268125 6.680625 -3.53625 7.36125 -3.8125 8.0625 C-5.57484972 10.9379127 -7.8451787 11.17700314 -11 12 C-11 11.34 -11 10.68 -11 10 C-9.35546875 8.37890625 -9.35546875 8.37890625 -7.1875 6.5625 C-4.68897282 4.45536324 -2.2757944 2.34758602 0 0 Z " fill="#74141F" transform="translate(374,372)"/>
<path d="M0 0 C1.32830615 3.98491845 0.23204404 5.40048548 -1.4375 9.1875 C-1.91058594 10.27417969 -2.38367188 11.36085938 -2.87109375 12.48046875 C-3.42990234 13.72763672 -3.42990234 13.72763672 -4 15 C-4.33 15 -4.66 15 -5 15 C-5 13.35 -5 11.7 -5 10 C-4.34 10 -3.68 10 -3 10 C-3.33 8.02 -3.66 6.04 -4 4 C-3.01 4 -2.02 4 -1 4 C-0.67 2.68 -0.34 1.36 0 0 Z " fill="#7A1820" transform="translate(429,312)"/>
<path d="M0 0 C0.99 0.495 0.99 0.495 2 1 C2.47597366 3.70599842 2.84093629 6.33595404 3.125 9.0625 C3.21136719 9.82111328 3.29773438 10.57972656 3.38671875 11.36132812 C3.59939517 13.23996986 3.80075459 15.11988636 4 17 C0.79906063 13.79906063 0.14039342 9.33842782 -0.125 4.91796875 C-0.125 3.2781164 -0.06826795 1.63843072 0 0 Z " fill="#741621" transform="translate(63,284)"/>
<path d="M0 0 C1.32 0.66 2.64 1.32 4 2 C2.1875 5 2.1875 5 0 8 C-0.99 8 -1.98 8 -3 8 C-3 6.35 -3 4.7 -3 3 C-2.01 3 -1.02 3 0 3 C0 2.01 0 1.02 0 0 Z " fill="#D72F41" transform="translate(117,129)"/>
<path d="M0 0 C2.31 0 4.62 0 7 0 C4.63404067 2.61500768 2.13950774 4.38999603 -1 6 C-1.66 5.67 -2.32 5.34 -3 5 C-2.67 4.01 -2.34 3.02 -2 2 C-1.34 2 -0.68 2 0 2 C0 1.34 0 0.68 0 0 Z " fill="#99212D" transform="translate(158,95)"/>
<path d="M0 0 C0.66 0.99 1.32 1.98 2 3 C0.741875 3.020625 -0.51625 3.04125 -1.8125 3.0625 C-2.52019531 3.07410156 -3.22789062 3.08570313 -3.95703125 3.09765625 C-6 3 -6 3 -9 2 C-9 1.34 -9 0.68 -9 0 C-2.25 -1.125 -2.25 -1.125 0 0 Z " fill="#E33047" transform="translate(206,434)"/>
<path d="M0 0 C0.99 0.495 0.99 0.495 2 1 C2 1.66 2 2.32 2 3 C2.66 3 3.32 3 4 3 C5.7265625 4.75 5.7265625 4.75 7.625 7 C8.25664063 7.7425 8.88828125 8.485 9.5390625 9.25 C10.02117187 9.8275 10.50328125 10.405 11 11 C10.67 11.66 10.34 12.32 10 13 C8.50855895 11.78575607 7.03222597 10.55293955 5.5625 9.3125 C4.73878906 8.62800781 3.91507812 7.94351562 3.06640625 7.23828125 C0.77822056 4.75977388 0.31869484 3.30863187 0 0 Z " fill="#620F19" transform="translate(114,359)"/>
<path d="M0 0 C0.99 0 1.98 0 3 0 C3 1.32 3 2.64 3 4 C3.66 4 4.32 4 5 4 C5 5.32 5 6.64 5 8 C5.66 8.33 6.32 8.66 7 9 C6.01 9 5.02 9 4 9 C3.67 8.01 3.34 7.02 3 6 C2.34 6 1.68 6 1 6 C0.67 4.02 0.34 2.04 0 0 Z " fill="#A42131" transform="translate(94,358)"/>
<path d="M0 0 C0.33 0 0.66 0 1 0 C1 1.65 1 3.3 1 5 C0.34 5 -0.32 5 -1 5 C-1.66 6.65 -2.32 8.3 -3 10 C-3.99 10 -4.98 10 -6 10 C-4.63201951 6.0100569 -2.79608023 3.15686477 0 0 Z " fill="#931C2B" transform="translate(394,347)"/>
<path d="M0 0 C0.66 0 1.32 0 2 0 C2.36923077 6.4 2.36923077 6.4 0.5 9.4375 C0.005 9.953125 -0.49 10.46875 -1 11 C-1.33 8.03 -1.66 5.06 -2 2 C-1.34 2 -0.68 2 0 2 C0 1.34 0 0.68 0 0 Z " fill="#EB314B" transform="translate(428,305)"/>
<path d="M0 0 C3.3125 0.125 3.3125 0.125 7 1 C8.9375 4.0625 8.9375 4.0625 10 7 C3.29090909 4.39090909 3.29090909 4.39090909 1 3 C0.67 2.01 0.34 1.02 0 0 Z " fill="#A32331" transform="translate(332,92)"/>
<path d="M0 0 C3.10190545 4.65285818 4.33846504 9.41532676 4 15 C3.01 14.67 2.02 14.34 1 14 C0.67 9.38 0.34 4.76 0 0 Z " fill="#78151F" transform="translate(82,293)"/>
<path d="M0 0 C0.99 0.33 1.98 0.66 3 1 C2.34 1.66 1.68 2.32 1 3 C1 3.66 1 4.32 1 5 C-1.64 5.33 -4.28 5.66 -7 6 C-2.25 1.125 -2.25 1.125 0 0 Z " fill="#841A26" transform="translate(235,216)"/>
<path d="M0 0 C0 0.33 0 0.66 0 1 C-5.80766296 2.5056904 -10.9981863 3.21824777 -17 3 C-12.64547174 -1.35452826 -5.77102003 -0.10085278 0 0 Z " fill="#68111A" transform="translate(255,213)"/>
<path d="M0 0 C0 3 0 3 -1.875 4.9375 C-2.57625 5.618125 -3.2775 6.29875 -4 7 C-4.33 7.70125 -4.66 8.4025 -5 9.125 C-6.26235606 11.49191761 -7.55556051 12.0222242 -10 13 C-9.34 11.35 -8.68 9.7 -8 8 C-7.34 8 -6.68 8 -6 8 C-5.7525 7.4225 -5.505 6.845 -5.25 6.25 C-3.83316683 3.6997003 -2.12372463 1.98214299 0 0 Z " fill="#5F0E16" transform="translate(112,115)"/>
<path d="M0 0 C0.66 0 1.32 0 2 0 C1.875 1.8125 1.875 1.8125 1 4 C-1.9375 5.8125 -1.9375 5.8125 -5 7 C-5.66 6.67 -6.32 6.34 -7 6 C-5.75 4 -5.75 4 -4 2 C-2.68 2 -1.36 2 0 2 C0 1.34 0 0.68 0 0 Z " fill="#A72334" transform="translate(336,419)"/>
<path d="M0 0 C7.45937249 0.61142397 7.45937249 0.61142397 10 2.4375 C11 4 11 4 11 6 C6.95743617 4.77782954 3.50711041 3.37245704 0 1 C0 0.67 0 0.34 0 0 Z " fill="#831D25" transform="translate(156,418)"/>
<path d="M0 0 C2.93200474 2.85276137 5.64315404 5.65079784 8 9 C7.67 9.66 7.34 10.32 7 11 C2.34012809 7.9342948 1.14514798 5.41342681 0 0 Z " fill="#69141E" transform="translate(106,348)"/>
<path d="M0 0 C1.32 0 2.64 0 4 0 C2.8141763 3.37503669 1.72426311 5.64722731 -1 8 C-1.33 6.68 -1.66 5.36 -2 4 C-1.34 4 -0.68 4 0 4 C0 2.68 0 1.36 0 0 Z " fill="#A62433" transform="translate(412,344)"/>
<path d="M0 0 C0.99 0.33 1.98 0.66 3 1 C3.66 4.96 4.32 8.92 5 13 C2.33394431 9.44525908 1.58635561 8.29786012 0.8125 4.25 C0.65394531 3.45078125 0.49539062 2.6515625 0.33203125 1.828125 C0.22246094 1.22484375 0.11289063 0.6215625 0 0 Z " fill="#721520" transform="translate(70,312)"/>
<path d="M0 0 C0.9075 0.78375 1.815 1.5675 2.75 2.375 C4.58906886 3.92346128 6.06307842 5.02978703 8.25 6.0625 C10.52965275 7.28374255 11.05823081 8.64557703 12 11 C9.525 10.01 9.525 10.01 7 9 C7 8.34 7 7.68 7 7 C6.401875 6.731875 5.80375 6.46375 5.1875 6.1875 C3.00152146 5.00082594 1.58667406 3.90400887 0 2 C0 1.34 0 0.68 0 0 Z " fill="#5B0C14" transform="translate(222,271)"/>
<path d="M0 0 C0.33 0 0.66 0 1 0 C0.5188509 5.77378925 -1.18467181 9.95859836 -4 15 C-5.60031344 11.79937313 -4.03173691 9.27728194 -3 6 C-2.34 6 -1.68 6 -1 6 C-0.67 4.02 -0.34 2.04 0 0 Z " fill="#6A121C" transform="translate(283,256)"/>
<path d="M0 0 C2 2 2 2 2.4375 4.4375 C2 7 2 7 -0.5 8.8125 C-1.325 9.204375 -2.15 9.59625 -3 10 C-2.39009109 6.44219804 -1.4216319 3.3171411 0 0 Z " fill="#951D2C" transform="translate(77,167)"/>
<path d="M0 0 C4.19162145 0.95264124 5.7207791 1.63260408 8.375 5.125 C8.91125 6.07375 9.4475 7.0225 10 8 C6.05205855 6.32971708 3.18203882 3.8204435 0 1 C0 0.67 0 0.34 0 0 Z " fill="#791924" transform="translate(128,398)"/>
<path d="M0 0 C-0.66 1.98 -1.32 3.96 -2 6 C-2.99 6 -3.98 6 -5 6 C-5.33 4.68 -5.66 3.36 -6 2 C-3 0 -3 0 0 0 Z " fill="#B12437" transform="translate(230,222)"/>
<path d="M0 0 C0.66 0.33 1.32 0.66 2 1 C-0.8475202 5.05224029 -3.36660757 7.1869334 -8 9 C-8.66 8.67 -9.32 8.34 -10 8 C-6.25 5 -6.25 5 -4 5 C-4 4.34 -4 3.68 -4 3 C-2 1.375 -2 1.375 0 0 Z " fill="#771522" transform="translate(142,88)"/>
<path d="M0 0 C0 0.99 0 1.98 0 3 C-6.28571429 5.42857143 -6.28571429 5.42857143 -10 4 C-3.375 1.125 -3.375 1.125 0 0 Z " fill="#B52537" transform="translate(160,79)"/>
<path d="M0 0 C-4.38512875 3.31558515 -7.37458159 4.54996653 -13 5 C-11.5977422 2.1954844 -9.93929378 1.9557882 -7.0625 0.8125 C-6.16660156 0.44769531 -5.27070313 0.08289063 -4.34765625 -0.29296875 C-2 -1 -2 -1 0 0 Z " fill="#73141E" transform="translate(181,69)"/>
<path d="M0 0 C0.66 0.33 1.32 0.66 2 1 C0.35 2.98 -1.3 4.96 -3 7 C-4.32 6.67 -5.64 6.34 -7 6 C-4.69 4.02 -2.38 2.04 0 0 Z " fill="#7F1723" transform="translate(356,388)"/>
<path d="M0 0 C0.99 0.33 1.98 0.66 3 1 C1.25 6.75 1.25 6.75 -1 9 C-1.33 7.02 -1.66 5.04 -2 3 C-1.34 3 -0.68 3 0 3 C0 2.01 0 1.02 0 0 Z " fill="#A0212F" transform="translate(421,327)"/>
<path d="M0 0 C-1.26418246 0.69965443 -2.53665402 1.38434763 -3.8125 2.0625 C-4.52019531 2.44535156 -5.22789062 2.82820313 -5.95703125 3.22265625 C-8 4 -8 4 -11 3 C-10.34 3 -9.68 3 -9 3 C-9 2.01 -9 1.02 -9 0 C-2.25 -1.125 -2.25 -1.125 0 0 Z " fill="#8C1B26" transform="translate(269,281)"/>
<path d="M0 0 C0 0.99 0 1.98 0 3 C-0.66 3.66 -1.32 4.32 -2 5 C-2.64767793 7.57061311 -2.64767793 7.57061311 -3 10 C-3.99 10 -4.98 10 -6 10 C-5.49477778 5.62140745 -2.82172778 3.18348776 0 0 Z " fill="#70121E" transform="translate(101,128)"/>
<path d="M0 0 C3.68754757 0.49831724 5.60490662 1.10067643 8 4 C7.67 4.99 7.34 5.98 7 7 C6.01 6.34 5.02 5.68 4 5 C4 4.34 4 3.68 4 3 C2.68 2.34 1.36 1.68 0 1 C0 0.67 0 0.34 0 0 Z " fill="#911B29" transform="translate(356,109)"/>
<path d="M0 0 C-4.10457614 2.98514628 -6.97745369 3.2954439 -12 3 C-11 1 -11 1 -7.6875 -0.1875 C-4.42437937 -0.90649268 -3.00717118 -1.20286847 0 0 Z " fill="#791521" transform="translate(202,62)"/>
<path d="M0 0 C2.64 0 5.28 0 8 0 C7.67 0.99 7.34 1.98 7 3 C4.36 2.67 1.72 2.34 -1 2 C-0.67 1.34 -0.34 0.68 0 0 Z " fill="#E33149" transform="translate(293,421)"/>
<path d="M0 0 C1.8125 0.125 1.8125 0.125 4 1 C5.95320589 4.20883825 7 6.2205439 7 10 C5.5 8.625 5.5 8.625 4 7 C4 6.34 4 5.68 4 5 C3.34 5 2.68 5 2 5 C1.34 3.35 0.68 1.7 0 0 Z " fill="#75141F" transform="translate(100,368)"/>
<path d="M0 0 C0.99 0.33 1.98 0.66 3 1 C3.3721042 2.32303717 3.70630173 3.65737935 4 5 C4.66 5.33 5.32 5.66 6 6 C5.34 7.32 4.68 8.64 4 10 C3.32845067 8.71086513 2.66291141 7.41859796 2 6.125 C1.62875 5.40570313 1.2575 4.68640625 0.875 3.9453125 C0 2 0 2 0 0 Z " fill="#821A27" transform="translate(79,334)"/>
<path d="M0 0 C2.4375 1.125 2.4375 1.125 5 3 C5.8125 6.1875 5.8125 6.1875 6 9 C5.67 8.34 5.34 7.68 5 7 C4.01 6.67 3.02 6.34 2 6 C0.8125 2.9375 0.8125 2.9375 0 0 Z " fill="#A22434" transform="translate(406,141)"/>
<path d="M0 0 C3.77545388 1.09068668 6.47043472 1.9083091 9 5 C5.87709365 4.51421457 3.00419641 4.0013988 0 3 C0 2.01 0 1.02 0 0 Z " fill="#9C2030" transform="translate(349,84)"/>
<path d="M0 0 C0.99 0.33 1.98 0.66 3 1 C3.33 2.65 3.66 4.3 4 6 C1.5625 5.1875 1.5625 5.1875 -1 4 C-1.33 3.01 -1.66 2.02 -2 1 C-1.34 0.67 -0.68 0.34 0 0 Z " fill="#BA2335" transform="translate(152,412)"/>
<path d="M0 0 C0.75 1.75 0.75 1.75 1 4 C-0.9375 6.25 -0.9375 6.25 -3 8 C-3.66 7.67 -4.32 7.34 -5 7 C-3.47793991 4.37098712 -2.15634036 2.15634036 0 0 Z " fill="#F12E4C" transform="translate(374,374)"/>
<path d="M0 0 C2.60018816 3.90028225 2.15085514 7.47434569 2 12 C-0.12055529 8.46574118 -0.61577388 5.07279689 -1 1 C-0.67 0.67 -0.34 0.34 0 0 Z " fill="#931C28" transform="translate(68,300)"/>
<path d="M0 0 C0.66 0.99 1.32 1.98 2 3 C1.195625 3.45375 0.39125 3.9075 -0.4375 4.375 C-3.08856572 5.74725665 -3.08856572 5.74725665 -4 8 C-4.66 8 -5.32 8 -6 8 C-4.55746343 4.63408134 -2.66735273 2.48952921 0 0 Z " fill="#D82E46" transform="translate(119,109)"/>
<path d="M0 0 C2.475 0.495 2.475 0.495 5 1 C5 2.32 5 3.64 5 5 C4.01 5.495 4.01 5.495 3 6 C2.67 4.68 2.34 3.36 2 2 C1.34 2 0.68 2 0 2 C0 1.34 0 0.68 0 0 Z " fill="#ED3048" transform="translate(394,128)"/>
<path d="M0 0 C1.98 0.495 1.98 0.495 4 1 C3.67 2.32 3.34 3.64 3 5 C1.68 5.33 0.36 5.66 -1 6 C-0.67 4.02 -0.34 2.04 0 0 Z " fill="#A62233" transform="translate(350,409)"/>
<path d="M0 0 C2.0625 0.4375 2.0625 0.4375 4 1 C1.03 3.475 1.03 3.475 -2 6 C-1.125 1.125 -1.125 1.125 0 0 Z " fill="#9C212E" transform="translate(381,386)"/>
<path d="M0 0 C2.72426311 2.35277269 3.8141763 4.62496331 5 8 C2.525 7.01 2.525 7.01 0 6 C0 4.02 0 2.04 0 0 Z " fill="#861926" transform="translate(101,340)"/>
<path d="M0 0 C2.50298434 2.93828597 3.46930939 5.17902761 4 9 C3.01 8.67 2.02 8.34 1 8 C0.67 5.36 0.34 2.72 0 0 Z " fill="#70171F" transform="translate(424,172)"/>
<path d="M0 0 C2.64 1.98 5.28 3.96 8 6 C7.67 6.66 7.34 7.32 7 8 C3.64379729 6.61122646 1.92701272 5.08322035 0 2 C0 1.34 0 0.68 0 0 Z " fill="#952230" transform="translate(392,122)"/>
<path d="M0 0 C0.99 0.33 1.98 0.66 3 1 C1.37660195 2.70884005 -0.29319053 4.37446717 -2 6 C-2.66 6 -3.32 6 -4 6 C-4 5.01 -4 4.02 -4 3 C-2.68 2.67 -1.36 2.34 0 2 C0 1.34 0 0.68 0 0 Z " fill="#E2384B" transform="translate(373,393)"/>
<path d="M0 0 C0.88492145 2.47778006 1.11637742 3.66056586 0.25 6.1875 C-1 8 -1 8 -4 9 C-3.625 6.5625 -3.625 6.5625 -3 4 C-2.34 3.67 -1.68 3.34 -1 3 C-0.67 2.01 -0.34 1.02 0 0 Z " fill="#A62233" transform="translate(414,309)"/>
</svg>
